<svg width="22" height="17" viewBox="0 0 22 17" fill="none" xmlns="http://www.w3.org/2000/svg">
<path d="M18.88 -2.03252e-05L19.411 0.82598C15.753 3.22531 13.924 5.62465 13.924 8.02398C13.924 9.24332 14.455 9.95132 15.517 10.148L17.995 7.84698C18.7816 8.12232 19.4896 8.63365 20.119 9.38098C20.7876 10.089 21.122 11.0133 21.122 12.154C21.122 13.2946 20.6696 14.278 19.765 15.104C18.8603 15.8906 17.6606 16.284 16.166 16.284C14.7106 16.284 13.4913 15.7923 12.508 14.809C11.564 13.7863 11.092 12.39 11.092 10.62C11.092 6.76531 13.688 3.22531 18.88 -2.03252e-05ZM7.78797 -2.03252e-05L8.31897 0.82598C4.66097 3.22531 2.83197 5.62465 2.83197 8.02398C2.83197 9.24332 3.36297 9.95132 4.42497 10.148L6.90297 7.84698C7.68964 8.12232 8.39764 8.63365 9.02697 9.38098C9.69564 10.089 10.03 11.0133 10.03 12.154C10.03 13.2946 9.57764 14.278 8.67297 15.104C7.7683 15.8906 6.56864 16.284 5.07397 16.284C3.61864 16.284 2.3993 15.7923 1.41597 14.809C0.471971 13.7863 -2.91914e-05 12.39 -2.91914e-05 10.62C-2.91914e-05 6.76531 2.59597 3.22531 7.78797 -2.03252e-05Z" fill="#FF6B08"/>
</svg>
